<?xml version="1.0" encoding="iso-8859-1"?>
<!-- Generator: Adobe Illustrator 21.0.2, SVG Export Plug-In . SVG Version: 6.00 Build 0)  -->
<svg xmlns="http://www.w3.org/2000/svg" xmlns:xlink="http://www.w3.org/1999/xlink" version="1.1" id="Layer_1" x="0px" y="0px" viewBox="0 0 40 40" style="enable-background:new 0 0 40 40;" xml:space="preserve">
<g>
	<path style="fill:#8BB7F0;" d="M4,32.5c-1.378,0-2.5-1.122-2.5-2.5V10c0-1.378,1.122-2.5,2.5-2.5h32c1.378,0,2.5,1.122,2.5,2.5v20   c0,1.378-1.122,2.5-2.5,2.5H4z"/>
	<path style="fill:#4E7AB5;" d="M36,8c1.103,0,2,0.897,2,2v20c0,1.103-0.897,2-2,2H4c-1.103,0-2-0.897-2-2V10c0-1.103,0.897-2,2-2   H36 M36,7H4c-1.657,0-3,1.343-3,3v20c0,1.657,1.343,3,3,3h32c1.657,0,3-1.343,3-3V10C39,8.343,37.657,7,36,7L36,7z"/>
</g>
<g>
	<rect x="5.5" y="13.5" style="fill:#FFEEA3;" width="7" height="5"/>
	<path style="fill:#BA9B48;" d="M12,14v4H6v-4H12 M13,13H5v6h8V13L13,13z"/>
</g>
<rect x="5" y="22" style="fill:#FFEEA3;" width="6" height="2"/>
<rect x="13" y="22" style="fill:#FFEEA3;" width="6" height="2"/>
<rect x="21" y="22" style="fill:#FFEEA3;" width="6" height="2"/>
<g>
	<rect x="18" y="11" style="fill:#E1EBF2;" width="17" height="5"/>
</g>
<rect x="5" y="26" style="fill:#FFEEA3;" width="18" height="2"/>
<g>
	<circle style="fill:#F78F8F;" cx="31" cy="31" r="8.5"/>
	<path style="fill:#C74343;" d="M31,23c4.411,0,8,3.589,8,8s-3.589,8-8,8s-8-3.589-8-8S26.589,23,31,23 M31,22c-4.971,0-9,4.029-9,9   s4.029,9,9,9s9-4.029,9-9S35.971,22,31,22L31,22z"/>
</g>
<path style="fill:#FFFFFF;" d="M32,34h-2v2h2V34z M33,31c0.5-0.6,1-1.2,1-2c0-2.2-1.8-3-3-3c-2.2,0-3,1.8-3,3h2c0-0.5,0.2-1,1-1  c0.5,0,1,0.2,1,1c0,0.1-0.3,0.5-0.5,0.7C30.9,30.4,30,31.5,30,33h2C32,32.2,32.5,31.6,33,31z"/>
</svg>
